<svg width="1110" height="999" viewBox="0 0 1110 999" fill="none" xmlns="http://www.w3.org/2000/svg">
<path d="M1102.87 311.519L947.76 86.204C910.044 31.4179 853.221 0 791.858 0H689.552C675.371 0 662.701 10.0266 657.833 25.1048C642.118 73.7581 600.793 106.448 555 106.448C509.207 106.448 467.887 73.7581 452.167 25.1048C447.299 10.0266 434.629 0 420.448 0H318.137C256.779 0 199.951 31.4179 162.235 86.2094L7.1343 311.519C0.39394 321.311 -1.72901 334.194 1.44576 346.077C4.62054 357.961 12.6926 367.359 23.0998 371.281L238.087 452.351V959.827C238.087 980.94 253.208 998.055 271.861 998.055H838.139C856.792 998.055 871.913 980.94 871.913 959.827V452.351L1086.9 371.281C1097.31 367.359 1105.38 357.961 1108.55 346.077C1111.73 334.199 1109.61 321.311 1102.87 311.519ZM783.019 891.639C766.127 900.235 749.24 905.27 732.348 905.27C715.456 905.27 698.569 900.235 681.677 891.639C664.785 883.043 647.898 870.887 631.006 858.73C614.114 846.574 597.227 834.417 580.335 825.821C563.444 817.226 546.556 812.19 529.665 812.19C512.773 812.19 495.886 817.226 478.994 825.821C462.102 834.417 445.21 846.574 428.323 858.73C411.431 870.887 394.544 883.043 377.652 891.639C360.76 900.235 343.873 905.27 326.981 905.27C319.869 905.27 312.752 904.331 305.64 902.654V807.33C333.986 812.491 361.464 807.478 391.499 792.192C410.591 782.477 428.786 769.386 446.45 756.678C462.753 744.942 478.159 733.856 492.846 726.38C506.423 719.471 518.471 716.113 529.669 716.113C540.868 716.113 552.916 719.471 566.488 726.38C581.165 733.851 596.576 744.937 612.903 756.695C630.514 769.37 648.728 782.477 667.83 792.192C690.299 803.627 711.403 809.187 732.353 809.187C753.303 809.187 774.412 803.627 796.871 792.197C799.385 790.919 801.88 789.576 804.365 788.183V879.133C797.248 883.742 790.136 888.018 783.019 891.639ZM804.365 700.177C792.148 708.839 780.443 716.719 769.172 722.453C755.599 729.362 743.552 732.72 732.353 732.72C721.155 732.72 709.107 729.362 695.53 722.453C680.862 714.988 665.456 703.902 649.134 692.155C631.518 679.479 613.304 666.367 594.188 656.641C549.258 633.77 510.095 633.77 465.141 656.641C446.015 666.378 427.806 679.485 410.142 692.198C393.849 703.923 378.457 714.999 363.799 722.459C350.227 729.367 338.179 732.726 326.981 732.726C320.226 732.726 313.157 731.48 305.64 728.996V634.786C333.982 639.946 361.45 634.933 391.499 619.642C410.601 609.921 428.81 596.814 446.459 584.117C462.767 572.381 478.178 561.29 492.841 553.83C506.423 546.916 518.471 543.557 529.665 543.557C540.863 543.557 552.906 546.916 566.488 553.83C581.141 561.284 596.533 572.359 612.884 584.123C630.5 596.803 648.714 609.91 667.83 619.642C690.304 631.077 711.408 636.631 732.353 636.631C753.298 636.631 774.402 631.072 796.871 619.642C799.385 618.364 801.88 617.021 804.365 615.633V700.177ZM871.913 371.767V315.571C871.913 294.459 856.792 277.344 838.139 277.344C819.486 277.344 804.365 294.459 804.365 315.571V527.627C792.148 536.289 780.443 544.169 769.177 549.903C755.595 556.812 743.552 560.17 732.353 560.17C721.159 560.17 709.112 556.812 695.53 549.903C680.852 542.432 665.446 531.346 649.071 519.556C631.474 506.897 613.28 493.801 594.188 484.091C549.249 461.22 510.095 461.22 465.146 484.091C446.044 493.812 427.831 506.919 410.176 519.621C393.868 531.357 378.462 542.443 363.799 549.903C350.217 556.812 338.174 560.17 326.976 560.17C320.226 560.17 313.153 558.925 305.635 556.44V315.577C305.635 294.464 290.514 277.349 271.861 277.349C253.208 277.349 238.087 294.464 238.087 315.577V371.772L89.7894 315.85L215.521 133.208C240.35 97.1426 277.748 76.4613 318.142 76.4613H398.625C428.998 141.077 489.145 182.91 555 182.91C620.855 182.91 681.002 141.077 711.379 76.4613H791.863C832.252 76.4613 869.655 97.1426 894.484 133.202L1020.22 315.85L871.913 371.767Z" fill="#A88D00"/>
</svg>
