<?xml version="1.0" standalone="no"?>
<!DOCTYPE svg PUBLIC "-//W3C//DTD SVG 20010904//EN"
 "http://www.w3.org/TR/2001/REC-SVG-20010904/DTD/svg10.dtd">
<svg version="1.0" xmlns="http://www.w3.org/2000/svg"
 width="1280.000000pt" height="1170.000000pt" viewBox="0 0 1280.000000 1170.000000"
 preserveAspectRatio="xMidYMid meet">
<metadata>
Created by potrace 1.15, written by Peter Selinger 2001-2017
</metadata>
<g transform="translate(0.000000,1170.000000) scale(0.100000,-0.100000)"
fill="#000000" stroke="none">
<path d="M2705 11686 c-22 -8 -90 -30 -152 -50 -141 -46 -389 -151 -553 -234
-636 -323 -1154 -800 -1545 -1424 -97 -156 -273 -496 -350 -678 -82 -196 -96
-258 -102 -470 -3 -109 0 -238 7 -315 6 -71 14 -195 16 -275 l5 -145 107 -224
c159 -335 359 -738 447 -901 835 -1552 1991 -2970 3315 -4066 1043 -863 2169
-1548 3440 -2091 577 -246 1327 -496 2020 -673 69 -17 197 -52 285 -76 156
-43 166 -45 380 -55 453 -23 660 10 950 151 405 196 920 671 1269 1170 121
172 242 369 287 466 89 192 214 674 251 964 16 132 16 551 0 680 -7 52 -17
133 -23 180 -34 270 -106 408 -238 456 -115 42 -510 27 -1491 -56 -1285 -110
-1824 -164 -1959 -197 -113 -27 -177 -154 -220 -436 -12 -75 -21 -166 -21
-204 -2 -275 -81 -432 -242 -474 -45 -12 -48 -12 -143 34 -164 79 -334 199
-840 591 -685 530 -2165 1721 -3460 2785 -986 810 -1219 1017 -1244 1107 -16
59 3 116 62 181 94 102 257 195 595 339 203 86 494 228 567 276 63 41 105 118
105 190 0 95 -91 396 -280 928 -28 80 -64 181 -80 225 -32 92 -108 302 -179
503 -27 75 -88 242 -135 370 -47 129 -125 342 -172 475 -84 235 -135 364 -263
667 -85 199 -122 252 -206 291 -55 25 -159 32 -210 15z"/>
</g>
</svg>
